<svg width="28" height="28" viewBox="0 0 60 60" version="1.1" xmlns="http://www.w3.org/2000/svg" xmlns:xlink="http://www.w3.org/1999/xlink">
<title>Group</title>
<desc>Created using Figma</desc>
<g id="Canvas" transform="translate(-3176 -3990)">
<g id="Group">
<g id="Vector">
<use xlink:href="#path0_fill" transform="translate(3176 3990)"/>
</g>
<g id="Vector">
<use xlink:href="#path1_fill" transform="translate(3194.46 4008.46)"/>
</g>
</g>
</g>
<defs>
<path id="path0_fill" d="M 30 0C 13.4585 0 0 13.4573 0 30C 0 46.5427 13.4585 60 30 60C 46.5415 60 60 46.5427 60 30C 60 13.4573 46.5415 0 30 0ZM 30 57.6923C 14.7312 57.6923 2.30769 45.2688 2.30769 30C 2.30769 14.7312 14.7312 2.30769 30 2.30769C 45.2688 2.30769 57.6923 14.7312 57.6923 30C 57.6923 45.2688 45.2688 57.6923 30 57.6923Z"/>
<path id="path1_fill" d="M 22.7391 0.338365C 22.288 -0.112789 21.5587 -0.112789 21.1076 0.338365L 11.5387 9.90721L 1.9699 0.338365C 1.51875 -0.112789 0.789518 -0.112789 0.338365 0.338365C -0.112789 0.789518 -0.112789 1.51875 0.338365 1.9699L 9.90721 11.5387L 0.338365 21.1076C -0.112789 21.5587 -0.112789 22.288 0.338365 22.7391C 0.563365 22.9641 0.85875 23.0772 1.15413 23.0772C 1.44952 23.0772 1.7449 22.9641 1.9699 22.7391L 11.5387 13.1703L 21.1076 22.7391C 21.3326 22.9641 21.628 23.0772 21.9234 23.0772C 22.2188 23.0772 22.5141 22.9641 22.7391 22.7391C 23.1903 22.288 23.1903 21.5587 22.7391 21.1076L 13.1703 11.5387L 22.7391 1.9699C 23.1903 1.51875 23.1903 0.789518 22.7391 0.338365Z"/>
</defs>
</svg>
