<svg width="15" height="10" viewBox="0 0 28 20" version="1.1" xmlns="http://www.w3.org/2000/svg" xmlns:xlink="http://www.w3.org/1999/xlink">
<title>Vector</title>
<desc>Created using Figma</desc>
<g id="Canvas" transform="translate(-1769 -1961)">
<g id="Vector">
<use xlink:href="#path0_stroke" transform="translate(1770 1962)" fill="#FFFFFF"/>
</g>
</g>
<defs>
<path id="path0_stroke" d="M 26.7474 0.664364C 27.1143 0.251581 27.0771 -0.380491 26.6644 -0.747409C 26.2516 -1.11433 25.6195 -1.07715 25.2526 -0.664364L 26.7474 0.664364ZM 10 18L 9.37531 18.7809C 9.79082 19.1133 10.3939 19.0621 10.7474 18.6644L 10 18ZM 0.624695 9.21913C 0.193433 8.87412 -0.435859 8.94404 -0.780869 9.37531C -1.12588 9.80657 -1.05596 10.4359 -0.624695 10.7809L 0.624695 9.21913ZM 25.2526 -0.664364L 9.25259 17.3356L 10.7474 18.6644L 26.7474 0.664364L 25.2526 -0.664364ZM 10.6247 17.2191L 0.624695 9.21913L -0.624695 10.7809L 9.37531 18.7809L 10.6247 17.2191Z"/>
</defs>
</svg>
