<svg width="15" height="14" viewBox="0 0 26 27" version="1.1" xmlns="http://www.w3.org/2000/svg" xmlns:xlink="http://www.w3.org/1999/xlink">
<title>Vector</title>
<desc>Created using Figma</desc>
<g id="Canvas" transform="translate(-1770 -3940)">
<g id="Vector">
<use xlink:href="#path0_fill" transform="translate(1770.02 3940.5)"/>
</g>
</g>
<defs>
<path id="path0_fill" d="M 25 11.5385L 13.9423 11.5385L 13.9423 0.961539C 13.9423 0.429808 13.5115 0 12.9808 0C 12.45 0 12.0192 0.429808 12.0192 0.961539L 12.0192 11.5385L 0.961539 11.5385C 0.430769 11.5385 0 11.9683 0 12.5C 0 13.0317 0.430769 13.4615 0.961539 13.4615L 12.0192 13.4615L 12.0192 25C 12.0192 25.5317 12.45 25.9615 12.9808 25.9615C 13.5115 25.9615 13.9423 25.5317 13.9423 25L 13.9423 13.4615L 25 13.4615C 25.5308 13.4615 25.9615 13.0317 25.9615 12.5C 25.9615 11.9683 25.5308 11.5385 25 11.5385Z"/>
</defs>
</svg>
