<svg width="25" height="25" viewBox="0 0 55 55" version="1.1" xmlns="http://www.w3.org/2000/svg" xmlns:xlink="http://www.w3.org/1999/xlink">
<title>Group</title>
<desc>Created using Figma</desc>
<g id="Canvas" transform="translate(-2373 -1945)">
<g id="Group">
<g id="Vector">
<use xlink:href="#path0_fill" transform="translate(2378.3 1960.87)" fill="#212121"/>
</g>
<g id="Vector">
<use xlink:href="#path1_fill" transform="translate(2390.81 1961.1)" fill="#212121"/>
</g>
<g id="Vector">
<use xlink:href="#path2_fill" transform="translate(2399.48 1961.1)" fill="#212121"/>
</g>
<g id="Vector">
<use xlink:href="#path3_fill" transform="translate(2408.15 1961.1)" fill="#212121"/>
</g>
<g id="Vector">
<use xlink:href="#path4_fill" transform="translate(2390.21 1945)" fill="#212121"/>
</g>
<g id="Vector">
<use xlink:href="#path5_fill" transform="translate(2373 1952.77)" fill="#212121"/>
</g>
</g>
</g>
<defs>
<path id="path0_fill" d="M 42.3603 0.859396C 42.3603 0.384934 42.8192 1.19589e-07 43.385 1.19589e-07C 43.9508 1.19589e-07 44.41 0.386668 44.41 0.859396L 44.41 33.8272C 44.41 35.2827 43.6968 36.6077 42.5524 37.569C 41.4081 38.5287 39.8258 39.1266 38.0901 39.1266L 6.31989 39.1266C 4.58406 39.1266 2.99984 38.5287 1.85751 37.569C 0.713113 36.6094 -2.79745e-07 35.2847 -2.79745e-07 33.8272L -2.79745e-07 0.859396C -2.79745e-07 0.384934 0.459053 1.19589e-07 1.02478 1.19589e-07C 1.5906 1.19589e-07 2.04965 0.386668 2.04965 0.859396L 2.04965 33.8272C 2.04965 34.8084 2.53225 35.7053 3.30513 36.3533C 4.078 37.0015 5.14772 37.4079 6.31773 37.4079L 38.0881 37.4079C 39.2581 37.4079 40.3255 37.0014 41.0985 36.3533C 41.8736 35.7034 42.356 34.8083 42.356 33.829L 42.356 0.859396L 42.3603 0.859396Z"/>
<path id="path1_fill" d="M 2.04974 31.3851C 2.04974 31.8596 1.59069 32.2445 1.02487 32.2445C 0.459054 32.2445 1.25062e-06 31.8596 1.25062e-06 31.3851L 1.25062e-06 0.859396C 1.25062e-06 0.384934 0.459054 5.51947e-08 1.02487 5.51947e-08C 1.59069 5.51947e-08 2.04974 0.384934 2.04974 0.859396L 2.04974 31.3851Z"/>
<path id="path2_fill" d="M 2.04965 31.3851C 2.04965 31.8596 1.59069 32.2445 1.02487 32.2445C 0.459054 32.2445 -7.89868e-07 31.8596 -7.89868e-07 31.3851L -7.89868e-07 0.859396C -7.89868e-07 0.384934 0.459054 5.51947e-08 1.02487 5.51947e-08C 1.59069 5.51947e-08 2.04965 0.384934 2.04965 0.859396L 2.04965 31.3851Z"/>
<path id="path3_fill" d="M 2.04956 31.3851C 2.04956 31.8596 1.59069 32.2445 1.02487 32.2445C 0.458963 32.2445 8.33749e-07 31.8596 8.33749e-07 31.3851L 8.33749e-07 0.859396C 8.33749e-07 0.384934 0.458963 5.51947e-08 1.02487 5.51947e-08C 1.59069 5.51947e-08 2.04956 0.384934 2.04956 0.859396L 2.04956 31.3851Z"/>
<path id="path4_fill" d="M 2.04965 5.29948C 2.04965 5.77395 1.5906 6.15888 1.02478 6.15888C 0.459053 6.15888 -2.08437e-07 5.77395 -2.08437e-07 5.29948C -2.08437e-07 3.8403 0.710958 2.51549 1.85545 1.55587C 2.99984 0.596167 4.57984 0 6.31989 0L 14.2625 0C 16.0004 0 17.5804 0.597975 18.7247 1.5576C 19.8691 2.51722 20.5823 3.84565 20.5823 5.29948C 20.5823 5.77395 20.1233 6.15888 19.5575 6.15888C 18.9917 6.15888 18.5327 5.77395 18.5327 5.29948C 18.5327 4.31838 18.0502 3.42138 17.2772 2.77329C 16.5042 2.12513 15.4346 1.71872 14.2646 1.71872L 6.32214 1.71872C 5.14997 1.71872 4.08241 2.12332 3.30738 2.77148C 2.53216 3.42138 2.04965 4.31657 2.04965 5.29948Z"/>
<path id="path5_fill" d="M 3.67233 1.28788e-07L 51.3277 1.28788e-07C 52.3332 1.28788e-07 53.2513 0.345522 53.9175 0.90416L 53.9217 0.907777C 54.5879 1.46634 55 2.23621 55 3.07948L 55 5.29956C 55 5.77395 54.5409 6.15888 53.9751 6.15888L 53.9474 6.15888L 1.02487 6.15888C 0.459053 6.15888 -1.15189e-07 5.77395 -1.15189e-07 5.29956L -1.15189e-07 5.27808L -1.15189e-07 3.07948C -1.15189e-07 2.23802 0.412051 1.46634 1.07825 0.907777L 1.08257 0.90416C 1.74868 0.345597 2.66885 1.28788e-07 3.67233 1.28788e-07ZM 51.3278 1.71879L 3.67233 1.71879C 3.22613 1.71879 2.8183 1.87102 2.52794 2.11624L 2.52362 2.11985C 2.2311 2.36326 2.04965 2.70351 2.04965 3.07948L 2.04965 4.44016L 52.9482 4.44016L 52.9482 3.07948C 52.9482 2.70532 52.7667 2.36334 52.4743 2.11985L 52.4699 2.11624C 52.1797 1.87102 51.774 1.71879 51.3278 1.71879Z"/>
</defs>
</svg>
