<svg width="25" height="25" viewBox="0 0 55 55" version="1.1" xmlns="http://www.w3.org/2000/svg" xmlns:xlink="http://www.w3.org/1999/xlink">
<title>Vector</title>
<desc>Created using Figma</desc>
<g id="Canvas" transform="translate(-2293 -1945)">
<g id="Vector">
<use xlink:href="#path0_fill" transform="translate(2293 1945)"/>
</g>
</g>
<defs>
<path id="path0_fill" d="M 52.379 2.61905C 48.8849 -0.873016 43.2018 -0.873016 39.7078 2.61905L 3.80961 38.5172C 3.79269 38.5341 3.78274 38.555 3.76781 38.573C 3.7469 38.5969 3.72898 38.6227 3.71007 38.6486C 3.65731 38.7223 3.6165 38.8009 3.58564 38.8865C 3.57668 38.9124 3.56374 38.9353 3.55677 38.9612C 3.55378 38.9711 3.54781 38.9811 3.54482 38.9911L 0.0258819 53.7736C 0.00995457 53.8403 0.00597274 53.908 0.00398183 53.9747C 0.00398183 53.9876 0 53.9996 0 54.0125C 0.000995457 54.126 0.0258819 54.2365 0.0647047 54.343C 0.0736638 54.3679 0.0836184 54.3898 0.0945684 54.4137C 0.143346 54.5202 0.204069 54.6227 0.289678 54.7083C 0.384246 54.8029 0.495738 54.8756 0.616188 54.9253C 0.736638 54.9751 0.865052 55 0.993466 55C 1.07012 55 1.14776 54.991 1.22342 54.9731L 16.006 51.4542C 16.0328 51.4482 16.0567 51.4333 16.0826 51.4243C 16.1165 51.4134 16.1483 51.4004 16.1812 51.3855C 16.2528 51.3526 16.3195 51.3118 16.3812 51.2631C 16.4051 51.2441 16.43 51.2302 16.4529 51.2093C 16.4609 51.2013 16.4708 51.1974 16.4788 51.1894L 52.378 15.2902C 55.872 11.7962 55.872 6.11211 52.379 2.61905ZM 50.9714 4.02662C 53.4481 6.50432 53.6591 10.3946 51.6184 13.1221L 41.8759 3.37958C 44.6044 1.33889 48.4947 1.54993 50.9714 4.02662ZM 46.0439 18.8092L 36.1888 8.95414L 37.5964 7.54656L 47.4515 17.4016L 46.0439 18.8092ZM 4.93846 50.0595C 4.54924 49.6703 3.92011 49.6703 3.53089 50.0595L 2.77733 50.8131L 5.31972 40.1338L 9.72163 39.6451L 9.15522 44.7438C 9.15124 44.7816 9.16517 44.8165 9.16517 44.8533C 9.16517 44.8911 9.15124 44.925 9.15522 44.9628C 9.1592 44.9957 9.17612 45.0225 9.18309 45.0544C 9.19504 45.1121 9.21196 45.1649 9.23286 45.2186C 9.25875 45.2833 9.28961 45.3421 9.32743 45.3988C 9.35829 45.4446 9.38915 45.4854 9.42698 45.5252C 9.47476 45.576 9.52652 45.6188 9.58327 45.6586C 9.62806 45.6895 9.67087 45.7184 9.72064 45.7422C 9.78634 45.7731 9.85503 45.791 9.9267 45.8079C 9.96453 45.8169 9.99539 45.8378 10.0342 45.8428C 10.07 45.8468 10.1059 45.8488 10.1427 45.8488L 10.1437 45.8488L 10.1447 45.8488L 10.1457 45.8488L 10.1467 45.8488C 10.1825 45.8488 10.2194 45.8468 10.2552 45.8428L 15.3539 45.2764L 14.8652 49.6783L 4.1849 52.2207L 4.93846 51.4671C 5.32669 51.0789 5.32669 50.4488 4.93846 50.0595ZM 17.4314 44.6054L 39.7078 22.3281C 40.097 21.9389 40.097 21.3098 39.7078 20.9205C 39.3186 20.5313 38.6894 20.5313 38.3002 20.9205L 16.0239 43.1979L 11.2726 43.7255L 11.8001 38.9741L 34.0785 16.6978C 34.4677 16.3086 34.4677 15.6794 34.0785 15.2902C 33.6893 14.901 33.0601 14.901 32.6709 15.2902L 10.3926 37.5666L 7.22403 37.919L 34.7813 10.3617L 44.6363 20.2167L 17.0791 47.774L 17.4314 44.6054ZM 48.859 15.994L 39.004 6.13898L 40.4126 4.73041L 50.2676 14.5854L 48.859 15.994Z"/>
</defs>
</svg>
