<svg width="28" height="28" viewBox="0 0 60 60" version="1.1" xmlns="http://www.w3.org/2000/svg" xmlns:xlink="http://www.w3.org/1999/xlink">
<title>Group</title>
<desc>Created using Figma</desc>
<g id="Canvas" transform="translate(-3096 -3990)">
<g id="Group">
<g id="Vector">
<use xlink:href="#path0_fill" transform="translate(3096 3990)"/>
</g>
<g id="Vector">
<use xlink:href="#path1_fill" transform="translate(3109.85 4007.31)"/>
</g>
</g>
</g>
<defs>
<path id="path0_fill" d="M 30 0C 13.4585 0 0 13.4573 0 30C 0 46.5427 13.4585 60 30 60C 46.5415 60 60 46.5427 60 30C 60 13.4573 46.5415 0 30 0ZM 30 57.6923C 14.7312 57.6923 2.30769 45.2688 2.30769 30C 2.30769 14.7312 14.7312 2.30769 30 2.30769C 45.2688 2.30769 57.6923 14.7312 57.6923 30C 57.6923 45.2688 45.2688 57.6923 30 57.6923Z"/>
<path id="path1_fill" d="M 30.2909 0.388241L 12.5575 20.3382L 1.87402 11.7917C 1.37786 11.3936 0.649788 11.4755 0.252865 11.9717C -0.145212 12.4702 -0.0644424 13.1959 0.432865 13.594L 11.9713 22.8248C 12.1836 22.9944 12.4386 23.0775 12.6925 23.0775C 13.0109 23.0775 13.3282 22.9459 13.5556 22.6898L 32.0171 1.92055C 32.4406 1.44516 32.3979 0.714779 31.9213 0.292471C 31.4436 -0.132144 30.7156 -0.0894517 30.2909 0.388241Z"/>
</defs>
</svg>
